ISO-10303-21;
HEADER;
/* Generated by software containing ST-Developer
 * from STEP Tools, Inc. (www.steptools.com) 
 */

FILE_DESCRIPTION(
/* description */ (''),
/* implementation_level */ '2;1');

FILE_NAME(
/* name */ 'MG90S Servo Horn (4 spork).step',
/* time_stamp */ '2026-03-08T16:50:14+05:30',
/* author */ (''),
/* organization */ (''),
/* preprocessor_version */ 'ST-DEVELOPER v20.1',
/* originating_system */ 'Autodesk Translation Framework v14.24.0.0',
/* authorisation */ '');

FILE_SCHEMA (('AUTOMOTIVE_DESIGN { 1 0 10303 214 3 1 1 }'));
ENDSEC;

DATA;
#10=MECHANICAL_DESIGN_GEOMETRIC_PRESENTATION_REPRESENTATION('',(#13),#1337);
#11=SHAPE_REPRESENTATION_RELATIONSHIP('SRR','None',#1344,#12);
#12=ADVANCED_BREP_SHAPE_REPRESENTATION('',(#14),#1336);
#13=STYLED_ITEM('',(#1353),#14);
#14=MANIFOLD_SOLID_BREP('Body8',#781);
#15=FACE_BOUND('',#111,.T.);
#16=FACE_BOUND('',#113,.T.);
#17=FACE_BOUND('',#145,.T.);
#18=FACE_BOUND('',#146,.T.);
#19=FACE_BOUND('',#147,.T.);
#20=FACE_BOUND('',#148,.T.);
#21=FACE_BOUND('',#149,.T.);
#22=FACE_BOUND('',#150,.T.);
#23=FACE_BOUND('',#151,.T.);
#24=FACE_BOUND('',#152,.T.);
#25=FACE_BOUND('',#153,.T.);
#26=FACE_BOUND('',#154,.T.);
#27=FACE_BOUND('',#155,.T.);
#28=FACE_BOUND('',#156,.T.);
#29=FACE_BOUND('',#157,.T.);
#30=FACE_BOUND('',#158,.T.);
#31=FACE_BOUND('',#159,.T.);
#32=FACE_BOUND('',#160,.T.);
#33=FACE_BOUND('',#161,.T.);
#34=FACE_BOUND('',#162,.T.);
#35=FACE_BOUND('',#164,.T.);
#36=FACE_BOUND('',#165,.T.);
#37=FACE_BOUND('',#166,.T.);
#38=FACE_BOUND('',#167,.T.);
#39=FACE_BOUND('',#168,.T.);
#40=FACE_BOUND('',#169,.T.);
#41=FACE_BOUND('',#170,.T.);
#42=FACE_BOUND('',#171,.T.);
#43=FACE_BOUND('',#172,.T.);
#44=FACE_BOUND('',#173,.T.);
#45=FACE_BOUND('',#174,.T.);
#46=FACE_BOUND('',#175,.T.);
#47=FACE_BOUND('',#176,.T.);
#48=FACE_BOUND('',#177,.T.);
#49=FACE_BOUND('',#178,.T.);
#50=FACE_BOUND('',#179,.T.);
#51=FACE_BOUND('',#180,.T.);
#52=FACE_BOUND('',#181,.T.);
#53=FACE_BOUND('',#186,.T.);
#54=FACE_BOUND('',#188,.T.);
#55=PLANE('',#798);
#56=PLANE('',#800);
#57=PLANE('',#855);
#58=PLANE('',#859);
#59=PLANE('',#860);
#60=PLANE('',#864);
#61=PLANE('',#865);
#62=PLANE('',#869);
#63=PLANE('',#870);
#64=PLANE('',#874);
#65=PLANE('',#875);
#66=PLANE('',#877);
#67=PLANE('',#885);
#68=PLANE('',#886);
#69=FACE_OUTER_BOUND('',#109,.T.);
#70=FACE_OUTER_BOUND('',#110,.T.);
#71=FACE_OUTER_BOUND('',#112,.T.);
#72=FACE_OUTER_BOUND('',#114,.T.);
#73=FACE_OUTER_BOUND('',#115,.T.);
#74=FACE_OUTER_BOUND('',#116,.T.);
#75=FACE_OUTER_BOUND('',#117,.T.);
#76=FACE_OUTER_BOUND('',#118,.T.);
#77=FACE_OUTER_BOUND('',#119,.T.);
#78=FACE_OUTER_BOUND('',#120,.T.);
#79=FACE_OUTER_BOUND('',#121,.T.);
#80=FACE_OUTER_BOUND('',#122,.T.);
#81=FACE_OUTER_BOUND('',#123,.T.);
#82=FACE_OUTER_BOUND('',#124,.T.);
#83=FACE_OUTER_BOUND('',#125,.T.);
#84=FACE_OUTER_BOUND('',#126,.T.);
#85=FACE_OUTER_BOUND('',#127,.T.);
#86=FACE_OUTER_BOUND('',#128,.T.);
#87=FACE_OUTER_BOUND('',#129,.T.);
#88=FACE_OUTER_BOUND('',#130,.T.);
#89=FACE_OUTER_BOUND('',#131,.T.);
#90=FACE_OUTER_BOUND('',#132,.T.);
#91=FACE_OUTER_BOUND('',#133,.T.);
#92=FACE_OUTER_BOUND('',#134,.T.);
#93=FACE_OUTER_BOUND('',#135,.T.);
#94=FACE_OUTER_BOUND('',#136,.T.);
#95=FACE_OUTER_BOUND('',#137,.T.);
#96=FACE_OUTER_BOUND('',#138,.T.);
#97=FACE_OUTER_BOUND('',#139,.T.);
#98=FACE_OUTER_BOUND('',#140,.T.);
#99=FACE_OUTER_BOUND('',#141,.T.);
#100=FACE_OUTER_BOUND('',#142,.T.);
#101=FACE_OUTER_BOUND('',#143,.T.);
#102=FACE_OUTER_BOUND('',#144,.T.);
#103=FACE_OUTER_BOUND('',#163,.T.);
#104=FACE_OUTER_BOUND('',#182,.T.);
#105=FACE_OUTER_BOUND('',#183,.T.);
#106=FACE_OUTER_BOUND('',#184,.T.);
#107=FACE_OUTER_BOUND('',#185,.T.);
#108=FACE_OUTER_BOUND('',#187,.T.);
#109=EDGE_LOOP('',(#511,#512,#513,#514));
#110=EDGE_LOOP('',(#515));
#111=EDGE_LOOP('',(#516));
#112=EDGE_LOOP('',(#517));
#113=EDGE_LOOP('',(#518));
#114=EDGE_LOOP('',(#519,#520,#521,#522));
#115=EDGE_LOOP('',(#523,#524,#525,#526));
#116=EDGE_LOOP('',(#527,#528,#529,#530));
#117=EDGE_LOOP('',(#531,#532,#533,#534));
#118=EDGE_LOOP('',(#535,#536,#537,#538));
#119=EDGE_LOOP('',(#539,#540,#541,#542));
#120=EDGE_LOOP('',(#543,#544,#545,#546));
#121=EDGE_LOOP('',(#547,#548,#549,#550));
#122=EDGE_LOOP('',(#551,#552,#553,#554));
#123=EDGE_LOOP('',(#555,#556,#557,#558));
#124=EDGE_LOOP('',(#559,#560,#561,#562));
#125=EDGE_LOOP('',(#563,#564,#565,#566));
#126=EDGE_LOOP('',(#567,#568,#569,#570));
#127=EDGE_LOOP('',(#571,#572,#573,#574));
#128=EDGE_LOOP('',(#575,#576,#577,#578));
#129=EDGE_LOOP('',(#579,#580,#581,#582));
#130=EDGE_LOOP('',(#583,#584,#585,#586));
#131=EDGE_LOOP('',(#587,#588,#589,#590));
#132=EDGE_LOOP('',(#591,#592,#593,#594));
#133=EDGE_LOOP('',(#595,#596,#597,#598));
#134=EDGE_LOOP('',(#599,#600,#601,#602));
#135=EDGE_LOOP('',(#603,#604,#605,#606));
#136=EDGE_LOOP('',(#607,#608,#609,#610));
#137=EDGE_LOOP('',(#611,#612,#613,#614));
#138=EDGE_LOOP('',(#615,#616,#617,#618));
#139=EDGE_LOOP('',(#619,#620,#621,#622));
#140=EDGE_LOOP('',(#623,#624,#625,#626));
#141=EDGE_LOOP('',(#627,#628,#629,#630));
#142=EDGE_LOOP('',(#631,#632,#633,#634));
#143=EDGE_LOOP('',(#635,#636,#637,#638));
#144=EDGE_LOOP('',(#639,#640,#641,#642,#643,#644,#645,#646,#647,#648,#649,
#650));
#145=EDGE_LOOP('',(#651));
#146=EDGE_LOOP('',(#652));
#147=EDGE_LOOP('',(#653));
#148=EDGE_LOOP('',(#654));
#149=EDGE_LOOP('',(#655));
#150=EDGE_LOOP('',(#656));
#151=EDGE_LOOP('',(#657));
#152=EDGE_LOOP('',(#658));
#153=EDGE_LOOP('',(#659));
#154=EDGE_LOOP('',(#660));
#155=EDGE_LOOP('',(#661));
#156=EDGE_LOOP('',(#662));
#157=EDGE_LOOP('',(#663));
#158=EDGE_LOOP('',(#664));
#159=EDGE_LOOP('',(#665));
#160=EDGE_LOOP('',(#666));
#161=EDGE_LOOP('',(#667));
#162=EDGE_LOOP('',(#668));
#163=EDGE_LOOP('',(#669,#670,#671,#672,#673,#674,#675,#676,#677,#678,#679,
#680));
#164=EDGE_LOOP('',(#681));
#165=EDGE_LOOP('',(#682));
#166=EDGE_LOOP('',(#683));
#167=EDGE_LOOP('',(#684));
#168=EDGE_LOOP('',(#685));
#169=EDGE_LOOP('',(#686));
#170=EDGE_LOOP('',(#687));
#171=EDGE_LOOP('',(#688));
#172=EDGE_LOOP('',(#689));
#173=EDGE_LOOP('',(#690));
#174=EDGE_LOOP('',(#691));
#175=EDGE_LOOP('',(#692));
#176=EDGE_LOOP('',(#693));
#177=EDGE_LOOP('',(#694));
#178=EDGE_LOOP('',(#695));
#179=EDGE_LOOP('',(#696));
#180=EDGE_LOOP('',(#697));
#181=EDGE_LOOP('',(#698));
#182=EDGE_LOOP('',(#699,#700,#701,#702));
#183=EDGE_LOOP('',(#703,#704,#705,#706));
#184=EDGE_LOOP('',(#707,#708,#709,#710));
#185=EDGE_LOOP('',(#711));
#186=EDGE_LOOP('',(#712));
#187=EDGE_LOOP('',(#713));
#188=EDGE_LOOP('',(#714));
#189=LINE('',#1128,#239);
#190=LINE('',#1138,#240);
#191=LINE('',#1144,#241);
#192=LINE('',#1150,#242);
#193=LINE('',#1156,#243);
#194=LINE('',#1162,#244);
#195=LINE('',#1168,#245);
#196=LINE('',#1174,#246);
#197=LINE('',#1180,#247);
#198=LINE('',#1186,#248);
#199=LINE('',#1192,#249);
#200=LINE('',#1198,#250);
#201=LINE('',#1204,#251);
#202=LINE('',#1210,#252);
#203=LINE('',#1216,#253);
#204=LINE('',#1222,#254);
#205=LINE('',#1228,#255);
#206=LINE('',#1234,#256);
#207=LINE('',#1240,#257);
#208=LINE('',#1245,#258);
#209=LINE('',#1247,#259);
#210=LINE('',#1249,#260);
#211=LINE('',#1250,#261);
#212=LINE('',#1256,#262);
#213=LINE('',#1259,#263);
#214=LINE('',#1261,#264);
#215=LINE('',#1262,#265);
#216=LINE('',#1265,#266);
#217=LINE('',#1267,#267);
#218=LINE('',#1268,#268);
#219=LINE('',#1274,#269);
#220=LINE('',#1277,#270);
#221=LINE('',#1279,#271);
#222=LINE('',#1280,#272);
#223=LINE('',#1283,#273);
#224=LINE('',#1285,#274);
#225=LINE('',#1286,#275);
#226=LINE('',#1292,#276);
#227=LINE('',#1295,#277);
#228=LINE('',#1297,#278);
#229=LINE('',#1298,#279);
#230=LINE('',#1301,#280);
#231=LINE('',#1303,#281);
#232=LINE('',#1304,#282);
#233=LINE('',#1310,#283);
#234=LINE('',#1312,#284);
#235=LINE('',#1313,#285);
#236=LINE('',#1322,#286);
#237=LINE('',#1327,#287);
#238=LINE('',#1331,#288);
#239=VECTOR('',#893,1.3);
#240=VECTOR('',#906,2.4);
#241=VECTOR('',#913,0.499999999999999);
#242=VECTOR('',#920,0.5);
#243=VECTOR('',#927,0.5);
#244=VECTOR('',#934,0.499999999999999);
#245=VECTOR('',#941,0.5);
#246=VECTOR('',#948,0.5);
#247=VECTOR('',#955,0.5);
#248=VECTOR('',#962,0.5);
#249=VECTOR('',#969,0.5);
#250=VECTOR('',#976,0.5);
#251=VECTOR('',#983,0.499999999999999);
#252=VECTOR('',#990,0.5);
#253=VECTOR('',#997,0.5);
#254=VECTOR('',#1004,0.5);
#255=VECTOR('',#1011,0.5);
#256=VECTOR('',#1018,0.5);
#257=VECTOR('',#1025,0.5);
#258=VECTOR('',#1030,10.);
#259=VECTOR('',#1031,10.);
#260=VECTOR('',#1032,10.);
#261=VECTOR('',#1033,10.);
#262=VECTOR('',#1040,10.);
#263=VECTOR('',#1043,10.);
#264=VECTOR('',#1044,10.);
#265=VECTOR('',#1045,10.);
#266=VECTOR('',#1048,10.);
#267=VECTOR('',#1049,10.);
#268=VECTOR('',#1050,10.);
#269=VECTOR('',#1057,10.);
#270=VECTOR('',#1060,10.);
#271=VECTOR('',#1061,10.);
#272=VECTOR('',#1062,10.);
#273=VECTOR('',#1065,10.);
#274=VECTOR('',#1066,10.);
#275=VECTOR('',#1067,10.);
#276=VECTOR('',#1074,10.);
#277=VECTOR('',#1077,10.);
#278=VECTOR('',#1078,10.);
#279=VECTOR('',#1079,10.);
#280=VECTOR('',#1082,10.);
#281=VECTOR('',#1083,10.);
#282=VECTOR('',#1084,10.);
#283=VECTOR('',#1091,10.);
#284=VECTOR('',#1094,10.);
#285=VECTOR('',#1095,10.);
#286=VECTOR('',#1106,3.4);
#287=VECTOR('',#1113,2.4);
#288=VECTOR('',#1118,3.4);
#289=CIRCLE('',#796,1.3);
#290=CIRCLE('',#797,1.3);
#291=CIRCLE('',#799,2.4);
#292=CIRCLE('',#801,2.4);
#293=CIRCLE('',#803,2.4);
#294=CIRCLE('',#805,0.499999999999999);
#295=CIRCLE('',#806,0.499999999999999);
#296=CIRCLE('',#808,0.5);
#297=CIRCLE('',#809,0.5);
#298=CIRCLE('',#811,0.5);
#299=CIRCLE('',#812,0.5);
#300=CIRCLE('',#814,0.499999999999999);
#301=CIRCLE('',#815,0.499999999999999);
#302=CIRCLE('',#817,0.5);
#303=CIRCLE('',#818,0.5);
#304=CIRCLE('',#820,0.5);
#305=CIRCLE('',#821,0.5);
#306=CIRCLE('',#823,0.5);
#307=CIRCLE('',#824,0.5);
#308=CIRCLE('',#826,0.5);
#309=CIRCLE('',#827,0.5);
#310=CIRCLE('',#829,0.5);
#311=CIRCLE('',#830,0.5);
#312=CIRCLE('',#832,0.5);
#313=CIRCLE('',#833,0.5);
#314=CIRCLE('',#835,0.499999999999999);
#315=CIRCLE('',#836,0.499999999999999);
#316=CIRCLE('',#838,0.5);
#317=CIRCLE('',#839,0.5);
#318=CIRCLE('',#841,0.5);
#319=CIRCLE('',#842,0.5);
#320=CIRCLE('',#844,0.5);
#321=CIRCLE('',#845,0.5);
#322=CIRCLE('',#847,0.5);
#323=CIRCLE('',#848,0.5);
#324=CIRCLE('',#850,0.5);
#325=CIRCLE('',#851,0.5);
#326=CIRCLE('',#853,0.5);
#327=CIRCLE('',#854,0.5);
#328=CIRCLE('',#857,1.8);
#329=CIRCLE('',#858,1.8);
#330=CIRCLE('',#862,1.8);
#331=CIRCLE('',#863,1.8);
#332=CIRCLE('',#867,1.80000000000018);
#333=CIRCLE('',#868,1.80000000000018);
#334=CIRCLE('',#872,1.8);
#335=CIRCLE('',#873,1.8);
#336=CIRCLE('',#876,3.4);
#337=CIRCLE('',#878,3.4);
#338=CIRCLE('',#880,3.4);
#339=CIRCLE('',#882,2.4);
#340=CIRCLE('',#884,3.4);
#341=VERTEX_POINT('',#1125);
#342=VERTEX_POINT('',#1127);
#343=VERTEX_POINT('',#1131);
#344=VERTEX_POINT('',#1134);
#345=VERTEX_POINT('',#1137);
#346=VERTEX_POINT('',#1141);
#347=VERTEX_POINT('',#1143);
#348=VERTEX_POINT('',#1147);
#349=VERTEX_POINT('',#1149);
#350=VERTEX_POINT('',#1153);
#351=VERTEX_POINT('',#1155);
#352=VERTEX_POINT('',#1159);
#353=VERTEX_POINT('',#1161);
#354=VERTEX_POINT('',#1165);
#355=VERTEX_POINT('',#1167);
#356=VERTEX_POINT('',#1171);
#357=VERTEX_POINT('',#1173);
#358=VERTEX_POINT('',#1177);
#359=VERTEX_POINT('',#1179);
#360=VERTEX_POINT('',#1183);
#361=VERTEX_POINT('',#1185);
#362=VERTEX_POINT('',#1189);
#363=VERTEX_POINT('',#1191);
#364=VERTEX_POINT('',#1195);
#365=VERTEX_POINT('',#1197);
#366=VERTEX_POINT('',#1201);
#367=VERTEX_POINT('',#1203);
#368=VERTEX_POINT('',#1207);
#369=VERTEX_POINT('',#1209);
#370=VERTEX_POINT('',#1213);
#371=VERTEX_POINT('',#1215);
#372=VERTEX_POINT('',#1219);
#373=VERTEX_POINT('',#1221);
#374=VERTEX_POINT('',#1225);
#375=VERTEX_POINT('',#1227);
#376=VERTEX_POINT('',#1231);
#377=VERTEX_POINT('',#1233);
#378=VERTEX_POINT('',#1237);
#379=VERTEX_POINT('',#1239);
#380=VERTEX_POINT('',#1243);
#381=VERTEX_POINT('',#1244);
#382=VERTEX_POINT('',#1246);
#383=VERTEX_POINT('',#1248);
#384=VERTEX_POINT('',#1252);
#385=VERTEX_POINT('',#1254);
#386=VERTEX_POINT('',#1258);
#387=VERTEX_POINT('',#1260);
#388=VERTEX_POINT('',#1264);
#389=VERTEX_POINT('',#1266);
#390=VERTEX_POINT('',#1270);
#391=VERTEX_POINT('',#1272);
#392=VERTEX_POINT('',#1276);
#393=VERTEX_POINT('',#1278);
#394=VERTEX_POINT('',#1282);
#395=VERTEX_POINT('',#1284);
#396=VERTEX_POINT('',#1288);
#397=VERTEX_POINT('',#1290);
#398=VERTEX_POINT('',#1294);
#399=VERTEX_POINT('',#1296);
#400=VERTEX_POINT('',#1300);
#401=VERTEX_POINT('',#1302);
#402=VERTEX_POINT('',#1306);
#403=VERTEX_POINT('',#1308);
#404=VERTEX_POINT('',#1315);
#405=VERTEX_POINT('',#1318);
#406=VERTEX_POINT('',#1321);
#407=VERTEX_POINT('',#1325);
#408=VERTEX_POINT('',#1329);
#409=EDGE_CURVE('',#341,#341,#289,.T.);
#410=EDGE_CURVE('',#341,#342,#189,.T.);
#411=EDGE_CURVE('',#342,#342,#290,.T.);
#412=EDGE_CURVE('',#343,#343,#291,.T.);
#413=EDGE_CURVE('',#344,#344,#292,.T.);
#414=EDGE_CURVE('',#344,#345,#190,.T.);
#415=EDGE_CURVE('',#345,#345,#293,.T.);
#416=EDGE_CURVE('',#346,#346,#294,.T.);
#417=EDGE_CURVE('',#346,#347,#191,.T.);
#418=EDGE_CURVE('',#347,#347,#295,.T.);
#419=EDGE_CURVE('',#348,#348,#296,.T.);
#420=EDGE_CURVE('',#348,#349,#192,.T.);
#421=EDGE_CURVE('',#349,#349,#297,.T.);
#422=EDGE_CURVE('',#350,#350,#298,.T.);
#423=EDGE_CURVE('',#350,#351,#193,.T.);
#424=EDGE_CURVE('',#351,#351,#299,.T.);
#425=EDGE_CURVE('',#352,#352,#300,.T.);
#426=EDGE_CURVE('',#352,#353,#194,.T.);
#427=EDGE_CURVE('',#353,#353,#301,.T.);
#428=EDGE_CURVE('',#354,#354,#302,.T.);
#429=EDGE_CURVE('',#354,#355,#195,.T.);
#430=EDGE_CURVE('',#355,#355,#303,.T.);
#431=EDGE_CURVE('',#356,#356,#304,.T.);
#432=EDGE_CURVE('',#356,#357,#196,.T.);
#433=EDGE_CURVE('',#357,#357,#305,.T.);
#434=EDGE_CURVE('',#358,#358,#306,.T.);
#435=EDGE_CURVE('',#358,#359,#197,.T.);
#436=EDGE_CURVE('',#359,#359,#307,.T.);
#437=EDGE_CURVE('',#360,#360,#308,.T.);
#438=EDGE_CURVE('',#360,#361,#198,.T.);
#439=EDGE_CURVE('',#361,#361,#309,.T.);
#440=EDGE_CURVE('',#362,#362,#310,.T.);
#441=EDGE_CURVE('',#362,#363,#199,.T.);
#442=EDGE_CURVE('',#363,#363,#311,.T.);
#443=EDGE_CURVE('',#364,#364,#312,.T.);
#444=EDGE_CURVE('',#364,#365,#200,.T.);
#445=EDGE_CURVE('',#365,#365,#313,.T.);
#446=EDGE_CURVE('',#366,#366,#314,.T.);
#447=EDGE_CURVE('',#366,#367,#201,.T.);
#448=EDGE_CURVE('',#367,#367,#315,.T.);
#449=EDGE_CURVE('',#368,#368,#316,.T.);
#450=EDGE_CURVE('',#368,#369,#202,.T.);
#451=EDGE_CURVE('',#369,#369,#317,.T.);
#452=EDGE_CURVE('',#370,#370,#318,.T.);
#453=EDGE_CURVE('',#370,#371,#203,.T.);
#454=EDGE_CURVE('',#371,#371,#319,.T.);
#455=EDGE_CURVE('',#372,#372,#320,.T.);
#456=EDGE_CURVE('',#372,#373,#204,.T.);
#457=EDGE_CURVE('',#373,#373,#321,.T.);
#458=EDGE_CURVE('',#374,#374,#322,.T.);
#459=EDGE_CURVE('',#374,#375,#205,.T.);
#460=EDGE_CURVE('',#375,#375,#323,.T.);
#461=EDGE_CURVE('',#376,#376,#324,.T.);
#462=EDGE_CURVE('',#376,#377,#206,.T.);
#463=EDGE_CURVE('',#377,#377,#325,.T.);
#464=EDGE_CURVE('',#378,#378,#326,.T.);
#465=EDGE_CURVE('',#378,#379,#207,.T.);
#466=EDGE_CURVE('',#379,#379,#327,.T.);
#467=EDGE_CURVE('',#380,#381,#208,.T.);
#468=EDGE_CURVE('',#380,#382,#209,.T.);
#469=EDGE_CURVE('',#383,#382,#210,.T.);
#470=EDGE_CURVE('',#381,#383,#211,.T.);
#471=EDGE_CURVE('',#384,#381,#328,.T.);
#472=EDGE_CURVE('',#385,#383,#329,.T.);
#473=EDGE_CURVE('',#384,#385,#212,.T.);
#474=EDGE_CURVE('',#386,#384,#213,.T.);
#475=EDGE_CURVE('',#387,#385,#214,.T.);
#476=EDGE_CURVE('',#386,#387,#215,.T.);
#477=EDGE_CURVE('',#388,#386,#216,.T.);
#478=EDGE_CURVE('',#389,#387,#217,.T.);
#479=EDGE_CURVE('',#388,#389,#218,.T.);
#480=EDGE_CURVE('',#390,#388,#330,.T.);
#481=EDGE_CURVE('',#391,#389,#331,.T.);
#482=EDGE_CURVE('',#390,#391,#219,.T.);
#483=EDGE_CURVE('',#390,#392,#220,.T.);
#484=EDGE_CURVE('',#393,#391,#221,.T.);
#485=EDGE_CURVE('',#392,#393,#222,.T.);
#486=EDGE_CURVE('',#394,#392,#223,.T.);
#487=EDGE_CURVE('',#395,#393,#224,.T.);
#488=EDGE_CURVE('',#394,#395,#225,.T.);
#489=EDGE_CURVE('',#396,#394,#332,.T.);
#490=EDGE_CURVE('',#397,#395,#333,.T.);
#491=EDGE_CURVE('',#396,#397,#226,.T.);
#492=EDGE_CURVE('',#398,#396,#227,.T.);
#493=EDGE_CURVE('',#399,#397,#228,.T.);
#494=EDGE_CURVE('',#398,#399,#229,.T.);
#495=EDGE_CURVE('',#400,#398,#230,.T.);
#496=EDGE_CURVE('',#401,#399,#231,.T.);
#497=EDGE_CURVE('',#400,#401,#232,.T.);
#498=EDGE_CURVE('',#402,#400,#334,.T.);
#499=EDGE_CURVE('',#403,#401,#335,.T.);
#500=EDGE_CURVE('',#402,#403,#233,.T.);
#501=EDGE_CURVE('',#402,#380,#234,.T.);
#502=EDGE_CURVE('',#382,#403,#235,.T.);
#503=EDGE_CURVE('',#404,#404,#336,.T.);
#504=EDGE_CURVE('',#405,#405,#337,.T.);
#505=EDGE_CURVE('',#405,#406,#236,.T.);
#506=EDGE_CURVE('',#406,#406,#338,.T.);
#507=EDGE_CURVE('',#407,#407,#339,.T.);
#508=EDGE_CURVE('',#407,#343,#237,.T.);
#509=EDGE_CURVE('',#408,#408,#340,.T.);
#510=EDGE_CURVE('',#408,#404,#238,.T.);
#511=ORIENTED_EDGE('',*,*,#409,.F.);
#512=ORIENTED_EDGE('',*,*,#410,.T.);
#513=ORIENTED_EDGE('',*,*,#411,.T.);
#514=ORIENTED_EDGE('',*,*,#410,.F.);
#515=ORIENTED_EDGE('',*,*,#412,.F.);
#516=ORIENTED_EDGE('',*,*,#409,.T.);
#517=ORIENTED_EDGE('',*,*,#413,.F.);
#518=ORIENTED_EDGE('',*,*,#411,.F.);
#519=ORIENTED_EDGE('',*,*,#413,.T.);
#520=ORIENTED_EDGE('',*,*,#414,.T.);
#521=ORIENTED_EDGE('',*,*,#415,.T.);
#522=ORIENTED_EDGE('',*,*,#414,.F.);
#523=ORIENTED_EDGE('',*,*,#416,.F.);
#524=ORIENTED_EDGE('',*,*,#417,.T.);
#525=ORIENTED_EDGE('',*,*,#418,.T.);
#526=ORIENTED_EDGE('',*,*,#417,.F.);
#527=ORIENTED_EDGE('',*,*,#419,.F.);
#528=ORIENTED_EDGE('',*,*,#420,.T.);
#529=ORIENTED_EDGE('',*,*,#421,.T.);
#530=ORIENTED_EDGE('',*,*,#420,.F.);
#531=ORIENTED_EDGE('',*,*,#422,.F.);
#532=ORIENTED_EDGE('',*,*,#423,.T.);
#533=ORIENTED_EDGE('',*,*,#424,.T.);
#534=ORIENTED_EDGE('',*,*,#423,.F.);
#535=ORIENTED_EDGE('',*,*,#425,.F.);
#536=ORIENTED_EDGE('',*,*,#426,.T.);
#537=ORIENTED_EDGE('',*,*,#427,.T.);
#538=ORIENTED_EDGE('',*,*,#426,.F.);
#539=ORIENTED_EDGE('',*,*,#428,.F.);
#540=ORIENTED_EDGE('',*,*,#429,.T.);
#541=ORIENTED_EDGE('',*,*,#430,.T.);
#542=ORIENTED_EDGE('',*,*,#429,.F.);
#543=ORIENTED_EDGE('',*,*,#431,.F.);
#544=ORIENTED_EDGE('',*,*,#432,.T.);
#545=ORIENTED_EDGE('',*,*,#433,.T.);
#546=ORIENTED_EDGE('',*,*,#432,.F.);
#547=ORIENTED_EDGE('',*,*,#434,.F.);
#548=ORIENTED_EDGE('',*,*,#435,.T.);
#549=ORIENTED_EDGE('',*,*,#436,.T.);
#550=ORIENTED_EDGE('',*,*,#435,.F.);
#551=ORIENTED_EDGE('',*,*,#437,.F.);
#552=ORIENTED_EDGE('',*,*,#438,.T.);
#553=ORIENTED_EDGE('',*,*,#439,.T.);
#554=ORIENTED_EDGE('',*,*,#438,.F.);
#555=ORIENTED_EDGE('',*,*,#440,.F.);
#556=ORIENTED_EDGE('',*,*,#441,.T.);
#557=ORIENTED_EDGE('',*,*,#442,.T.);
#558=ORIENTED_EDGE('',*,*,#441,.F.);
#559=ORIENTED_EDGE('',*,*,#443,.F.);
#560=ORIENTED_EDGE('',*,*,#444,.T.);
#561=ORIENTED_EDGE('',*,*,#445,.T.);
#562=ORIENTED_EDGE('',*,*,#444,.F.);
#563=ORIENTED_EDGE('',*,*,#446,.F.);
#564=ORIENTED_EDGE('',*,*,#447,.T.);
#565=ORIENTED_EDGE('',*,*,#448,.T.);
#566=ORIENTED_EDGE('',*,*,#447,.F.);
#567=ORIENTED_EDGE('',*,*,#449,.F.);
#568=ORIENTED_EDGE('',*,*,#450,.T.);
#569=ORIENTED_EDGE('',*,*,#451,.T.);
#570=ORIENTED_EDGE('',*,*,#450,.F.);
#571=ORIENTED_EDGE('',*,*,#452,.F.);
#572=ORIENTED_EDGE('',*,*,#453,.T.);
#573=ORIENTED_EDGE('',*,*,#454,.T.);
#574=ORIENTED_EDGE('',*,*,#453,.F.);
#575=ORIENTED_EDGE('',*,*,#455,.F.);
#576=ORIENTED_EDGE('',*,*,#456,.T.);
#577=ORIENTED_EDGE('',*,*,#457,.T.);
#578=ORIENTED_EDGE('',*,*,#456,.F.);
#579=ORIENTED_EDGE('',*,*,#458,.F.);
#580=ORIENTED_EDGE('',*,*,#459,.T.);
#581=ORIENTED_EDGE('',*,*,#460,.T.);
#582=ORIENTED_EDGE('',*,*,#459,.F.);
#583=ORIENTED_EDGE('',*,*,#461,.F.);
#584=ORIENTED_EDGE('',*,*,#462,.T.);
#585=ORIENTED_EDGE('',*,*,#463,.T.);
#586=ORIENTED_EDGE('',*,*,#462,.F.);
#587=ORIENTED_EDGE('',*,*,#464,.F.);
#588=ORIENTED_EDGE('',*,*,#465,.T.);
#589=ORIENTED_EDGE('',*,*,#466,.T.);
#590=ORIENTED_EDGE('',*,*,#465,.F.);
#591=ORIENTED_EDGE('',*,*,#467,.F.);
#592=ORIENTED_EDGE('',*,*,#468,.T.);
#593=ORIENTED_EDGE('',*,*,#469,.F.);
#594=ORIENTED_EDGE('',*,*,#470,.F.);
#595=ORIENTED_EDGE('',*,*,#471,.T.);
#596=ORIENTED_EDGE('',*,*,#470,.T.);
#597=ORIENTED_EDGE('',*,*,#472,.F.);
#598=ORIENTED_EDGE('',*,*,#473,.F.);
#599=ORIENTED_EDGE('',*,*,#474,.T.);
#600=ORIENTED_EDGE('',*,*,#473,.T.);
#601=ORIENTED_EDGE('',*,*,#475,.F.);
#602=ORIENTED_EDGE('',*,*,#476,.F.);
#603=ORIENTED_EDGE('',*,*,#477,.T.);
#604=ORIENTED_EDGE('',*,*,#476,.T.);
#605=ORIENTED_EDGE('',*,*,#478,.F.);
#606=ORIENTED_EDGE('',*,*,#479,.F.);
#607=ORIENTED_EDGE('',*,*,#480,.T.);
#608=ORIENTED_EDGE('',*,*,#479,.T.);
#609=ORIENTED_EDGE('',*,*,#481,.F.);
#610=ORIENTED_EDGE('',*,*,#482,.F.);
#611=ORIENTED_EDGE('',*,*,#483,.F.);
#612=ORIENTED_EDGE('',*,*,#482,.T.);
#613=ORIENTED_EDGE('',*,*,#484,.F.);
#614=ORIENTED_EDGE('',*,*,#485,.F.);
#615=ORIENTED_EDGE('',*,*,#486,.T.);
#616=ORIENTED_EDGE('',*,*,#485,.T.);
#617=ORIENTED_EDGE('',*,*,#487,.F.);
#618=ORIENTED_EDGE('',*,*,#488,.F.);
#619=ORIENTED_EDGE('',*,*,#489,.T.);
#620=ORIENTED_EDGE('',*,*,#488,.T.);
#621=ORIENTED_EDGE('',*,*,#490,.F.);
#622=ORIENTED_EDGE('',*,*,#491,.F.);
#623=ORIENTED_EDGE('',*,*,#492,.T.);
#624=ORIENTED_EDGE('',*,*,#491,.T.);
#625=ORIENTED_EDGE('',*,*,#493,.F.);
#626=ORIENTED_EDGE('',*,*,#494,.F.);
#627=ORIENTED_EDGE('',*,*,#495,.T.);
#628=ORIENTED_EDGE('',*,*,#494,.T.);
#629=ORIENTED_EDGE('',*,*,#496,.F.);
#630=ORIENTED_EDGE('',*,*,#497,.F.);
#631=ORIENTED_EDGE('',*,*,#498,.T.);
#632=ORIENTED_EDGE('',*,*,#497,.T.);
#633=ORIENTED_EDGE('',*,*,#499,.F.);
#634=ORIENTED_EDGE('',*,*,#500,.F.);
#635=ORIENTED_EDGE('',*,*,#501,.F.);
#636=ORIENTED_EDGE('',*,*,#500,.T.);
#637=ORIENTED_EDGE('',*,*,#502,.F.);
#638=ORIENTED_EDGE('',*,*,#468,.F.);
#639=ORIENTED_EDGE('',*,*,#502,.T.);
#640=ORIENTED_EDGE('',*,*,#499,.T.);
#641=ORIENTED_EDGE('',*,*,#496,.T.);
#642=ORIENTED_EDGE('',*,*,#493,.T.);
#643=ORIENTED_EDGE('',*,*,#490,.T.);
#644=ORIENTED_EDGE('',*,*,#487,.T.);
#645=ORIENTED_EDGE('',*,*,#484,.T.);
#646=ORIENTED_EDGE('',*,*,#481,.T.);
#647=ORIENTED_EDGE('',*,*,#478,.T.);
#648=ORIENTED_EDGE('',*,*,#475,.T.);
#649=ORIENTED_EDGE('',*,*,#472,.T.);
#650=ORIENTED_EDGE('',*,*,#469,.T.);
#651=ORIENTED_EDGE('',*,*,#464,.T.);
#652=ORIENTED_EDGE('',*,*,#461,.T.);
#653=ORIENTED_EDGE('',*,*,#458,.T.);
#654=ORIENTED_EDGE('',*,*,#455,.T.);
#655=ORIENTED_EDGE('',*,*,#452,.T.);
#656=ORIENTED_EDGE('',*,*,#449,.T.);
#657=ORIENTED_EDGE('',*,*,#446,.T.);
#658=ORIENTED_EDGE('',*,*,#443,.T.);
#659=ORIENTED_EDGE('',*,*,#440,.T.);
#660=ORIENTED_EDGE('',*,*,#503,.F.);
#661=ORIENTED_EDGE('',*,*,#437,.T.);
#662=ORIENTED_EDGE('',*,*,#434,.T.);
#663=ORIENTED_EDGE('',*,*,#431,.T.);
#664=ORIENTED_EDGE('',*,*,#428,.T.);
#665=ORIENTED_EDGE('',*,*,#425,.T.);
#666=ORIENTED_EDGE('',*,*,#422,.T.);
#667=ORIENTED_EDGE('',*,*,#419,.T.);
#668=ORIENTED_EDGE('',*,*,#416,.T.);
#669=ORIENTED_EDGE('',*,*,#501,.T.);
#670=ORIENTED_EDGE('',*,*,#467,.T.);
#671=ORIENTED_EDGE('',*,*,#471,.F.);
#672=ORIENTED_EDGE('',*,*,#474,.F.);
#673=ORIENTED_EDGE('',*,*,#477,.F.);
#674=ORIENTED_EDGE('',*,*,#480,.F.);
#675=ORIENTED_EDGE('',*,*,#483,.T.);
#676=ORIENTED_EDGE('',*,*,#486,.F.);
#677=ORIENTED_EDGE('',*,*,#489,.F.);
#678=ORIENTED_EDGE('',*,*,#492,.F.);
#679=ORIENTED_EDGE('',*,*,#495,.F.);
#680=ORIENTED_EDGE('',*,*,#498,.F.);
#681=ORIENTED_EDGE('',*,*,#466,.F.);
#682=ORIENTED_EDGE('',*,*,#463,.F.);
#683=ORIENTED_EDGE('',*,*,#460,.F.);
#684=ORIENTED_EDGE('',*,*,#457,.F.);
#685=ORIENTED_EDGE('',*,*,#454,.F.);
#686=ORIENTED_EDGE('',*,*,#451,.F.);
#687=ORIENTED_EDGE('',*,*,#448,.F.);
#688=ORIENTED_EDGE('',*,*,#445,.F.);
#689=ORIENTED_EDGE('',*,*,#442,.F.);
#690=ORIENTED_EDGE('',*,*,#504,.F.);
#691=ORIENTED_EDGE('',*,*,#439,.F.);
#692=ORIENTED_EDGE('',*,*,#436,.F.);
#693=ORIENTED_EDGE('',*,*,#433,.F.);
#694=ORIENTED_EDGE('',*,*,#430,.F.);
#695=ORIENTED_EDGE('',*,*,#427,.F.);
#696=ORIENTED_EDGE('',*,*,#424,.F.);
#697=ORIENTED_EDGE('',*,*,#421,.F.);
#698=ORIENTED_EDGE('',*,*,#418,.F.);
#699=ORIENTED_EDGE('',*,*,#504,.T.);
#700=ORIENTED_EDGE('',*,*,#505,.T.);
#701=ORIENTED_EDGE('',*,*,#506,.T.);
#702=ORIENTED_EDGE('',*,*,#505,.F.);
#703=ORIENTED_EDGE('',*,*,#507,.F.);
#704=ORIENTED_EDGE('',*,*,#508,.T.);
#705=ORIENTED_EDGE('',*,*,#412,.T.);
#706=ORIENTED_EDGE('',*,*,#508,.F.);
#707=ORIENTED_EDGE('',*,*,#509,.F.);
#708=ORIENTED_EDGE('',*,*,#510,.T.);
#709=ORIENTED_EDGE('',*,*,#503,.T.);
#710=ORIENTED_EDGE('',*,*,#510,.F.);
#711=ORIENTED_EDGE('',*,*,#509,.T.);
#712=ORIENTED_EDGE('',*,*,#507,.T.);
#713=ORIENTED_EDGE('',*,*,#506,.F.);
#714=ORIENTED_EDGE('',*,*,#415,.F.);
#715=CYLINDRICAL_SURFACE('',#795,1.3);
#716=CYLINDRICAL_SURFACE('',#802,2.4);
#717=CYLINDRICAL_SURFACE('',#804,0.499999999999999);
#718=CYLINDRICAL_SURFACE('',#807,0.5);
#719=CYLINDRICAL_SURFACE('',#810,0.5);
#720=CYLINDRICAL_SURFACE('',#813,0.499999999999999);
#721=CYLINDRICAL_SURFACE('',#816,0.5);
#722=CYLINDRICAL_SURFACE('',#819,0.5);
#723=CYLINDRICAL_SURFACE('',#822,0.5);
#724=CYLINDRICAL_SURFACE('',#825,0.5);
#725=CYLINDRICAL_SURFACE('',#828,0.5);
#726=CYLINDRICAL_SURFACE('',#831,0.5);
#727=CYLINDRICAL_SURFACE('',#834,0.499999999999999);
#728=CYLINDRICAL_SURFACE('',#837,0.5);
#729=CYLINDRICAL_SURFACE('',#840,0.5);
#730=CYLINDRICAL_SURFACE('',#843,0.5);
#731=CYLINDRICAL_SURFACE('',#846,0.5);
#732=CYLINDRICAL_SURFACE('',#849,0.5);
#733=CYLINDRICAL_SURFACE('',#852,0.5);
#734=CYLINDRICAL_SURFACE('',#856,1.8);
#735=CYLINDRICAL_SURFACE('',#861,1.8);
#736=CYLINDRICAL_SURFACE('',#866,1.80000000000018);
#737=CYLINDRICAL_SURFACE('',#871,1.8);
#738=CYLINDRICAL_SURFACE('',#879,3.4);
#739=CYLINDRICAL_SURFACE('',#881,2.4);
#740=CYLINDRICAL_SURFACE('',#883,3.4);
#741=ADVANCED_FACE('',(#69),#715,.F.);
#742=ADVANCED_FACE('',(#70,#15),#55,.T.);
#743=ADVANCED_FACE('',(#71,#16),#56,.F.);
#744=ADVANCED_FACE('',(#72),#716,.F.);
#745=ADVANCED_FACE('',(#73),#717,.F.);
#746=ADVANCED_FACE('',(#74),#718,.F.);
#747=ADVANCED_FACE('',(#75),#719,.F.);
#748=ADVANCED_FACE('',(#76),#720,.F.);
#749=ADVANCED_FACE('',(#77),#721,.F.);
#750=ADVANCED_FACE('',(#78),#722,.F.);
#751=ADVANCED_FACE('',(#79),#723,.F.);
#752=ADVANCED_FACE('',(#80),#724,.F.);
#753=ADVANCED_FACE('',(#81),#725,.F.);
#754=ADVANCED_FACE('',(#82),#726,.F.);
#755=ADVANCED_FACE('',(#83),#727,.F.);
#756=ADVANCED_FACE('',(#84),#728,.F.);
#757=ADVANCED_FACE('',(#85),#729,.F.);
#758=ADVANCED_FACE('',(#86),#730,.F.);
#759=ADVANCED_FACE('',(#87),#731,.F.);
#760=ADVANCED_FACE('',(#88),#732,.F.);
#761=ADVANCED_FACE('',(#89),#733,.F.);
#762=ADVANCED_FACE('',(#90),#57,.T.);
#763=ADVANCED_FACE('',(#91),#734,.T.);
#764=ADVANCED_FACE('',(#92),#58,.T.);
#765=ADVANCED_FACE('',(#93),#59,.T.);
#766=ADVANCED_FACE('',(#94),#735,.T.);
#767=ADVANCED_FACE('',(#95),#60,.T.);
#768=ADVANCED_FACE('',(#96),#61,.T.);
#769=ADVANCED_FACE('',(#97),#736,.T.);
#770=ADVANCED_FACE('',(#98),#62,.T.);
#771=ADVANCED_FACE('',(#99),#63,.T.);
#772=ADVANCED_FACE('',(#100),#737,.T.);
#773=ADVANCED_FACE('',(#101),#64,.T.);
#774=ADVANCED_FACE('',(#102,#17,#18,#19,#20,#21,#22,#23,#24,#25,#26,#27,
#28,#29,#30,#31,#32,#33,#34),#65,.T.);
#775=ADVANCED_FACE('',(#103,#35,#36,#37,#38,#39,#40,#41,#42,#43,#44,#45,
#46,#47,#48,#49,#50,#51,#52),#66,.F.);
#776=ADVANCED_FACE('',(#104),#738,.T.);
#777=ADVANCED_FACE('',(#105),#739,.F.);
#778=ADVANCED_FACE('',(#106),#740,.T.);
#779=ADVANCED_FACE('',(#107,#53),#67,.T.);
#780=ADVANCED_FACE('',(#108,#54),#68,.F.);
#781=CLOSED_SHELL('',(#741,#742,#743,#744,#745,#746,#747,#748,#749,#750,
#751,#752,#753,#754,#755,#756,#757,#758,#759,#760,#761,#762,#763,#764,#765,
#766,#767,#768,#769,#770,#771,#772,#773,#774,#775,#776,#777,#778,#779,#780));
#782=DERIVED_UNIT_ELEMENT(#784,1.);
#783=DERIVED_UNIT_ELEMENT(#1339,-3.);
#784=(
MASS_UNIT()
NAMED_UNIT(*)
SI_UNIT(.KILO.,.GRAM.)
);
#785=DERIVED_UNIT((#782,#783));
#786=MEASURE_REPRESENTATION_ITEM('density measure',
POSITIVE_RATIO_MEASURE(7850.),#785);
#787=PROPERTY_DEFINITION_REPRESENTATION(#792,#789);
#788=PROPERTY_DEFINITION_REPRESENTATION(#793,#790);
#789=REPRESENTATION('material name',(#791),#1336);
#790=REPRESENTATION('density',(#786),#1336);
#791=DESCRIPTIVE_REPRESENTATION_ITEM('Steel','Steel');
#792=PROPERTY_DEFINITION('material property','material name',#1346);
#793=PROPERTY_DEFINITION('material property','density of part',#1346);
#794=AXIS2_PLACEMENT_3D('',#1123,#887,#888);
#795=AXIS2_PLACEMENT_3D('',#1124,#889,#890);
#796=AXIS2_PLACEMENT_3D('',#1126,#891,#892);
#797=AXIS2_PLACEMENT_3D('',#1129,#894,#895);
#798=AXIS2_PLACEMENT_3D('',#1130,#896,#897);
#799=AXIS2_PLACEMENT_3D('',#1132,#898,#899);
#800=AXIS2_PLACEMENT_3D('',#1133,#900,#901);
#801=AXIS2_PLACEMENT_3D('',#1135,#902,#903);
#802=AXIS2_PLACEMENT_3D('',#1136,#904,#905);
#803=AXIS2_PLACEMENT_3D('',#1139,#907,#908);
#804=AXIS2_PLACEMENT_3D('',#1140,#909,#910);
#805=AXIS2_PLACEMENT_3D('',#1142,#911,#912);
#806=AXIS2_PLACEMENT_3D('',#1145,#914,#915);
#807=AXIS2_PLACEMENT_3D('',#1146,#916,#917);
#808=AXIS2_PLACEMENT_3D('',#1148,#918,#919);
#809=AXIS2_PLACEMENT_3D('',#1151,#921,#922);
#810=AXIS2_PLACEMENT_3D('',#1152,#923,#924);
#811=AXIS2_PLACEMENT_3D('',#1154,#925,#926);
#812=AXIS2_PLACEMENT_3D('',#1157,#928,#929);
#813=AXIS2_PLACEMENT_3D('',#1158,#930,#931);
#814=AXIS2_PLACEMENT_3D('',#1160,#932,#933);
#815=AXIS2_PLACEMENT_3D('',#1163,#935,#936);
#816=AXIS2_PLACEMENT_3D('',#1164,#937,#938);
#817=AXIS2_PLACEMENT_3D('',#1166,#939,#940);
#818=AXIS2_PLACEMENT_3D('',#1169,#942,#943);
#819=AXIS2_PLACEMENT_3D('',#1170,#944,#945);
#820=AXIS2_PLACEMENT_3D('',#1172,#946,#947);
#821=AXIS2_PLACEMENT_3D('',#1175,#949,#950);
#822=AXIS2_PLACEMENT_3D('',#1176,#951,#952);
#823=AXIS2_PLACEMENT_3D('',#1178,#953,#954);
#824=AXIS2_PLACEMENT_3D('',#1181,#956,#957);
#825=AXIS2_PLACEMENT_3D('',#1182,#958,#959);
#826=AXIS2_PLACEMENT_3D('',#1184,#960,#961);
#827=AXIS2_PLACEMENT_3D('',#1187,#963,#964);
#828=AXIS2_PLACEMENT_3D('',#1188,#965,#966);
#829=AXIS2_PLACEMENT_3D('',#1190,#967,#968);
#830=AXIS2_PLACEMENT_3D('',#1193,#970,#971);
#831=AXIS2_PLACEMENT_3D('',#1194,#972,#973);
#832=AXIS2_PLACEMENT_3D('',#1196,#974,#975);
#833=AXIS2_PLACEMENT_3D('',#1199,#977,#978);
#834=AXIS2_PLACEMENT_3D('',#1200,#979,#980);
#835=AXIS2_PLACEMENT_3D('',#1202,#981,#982);
#836=AXIS2_PLACEMENT_3D('',#1205,#984,#985);
#837=AXIS2_PLACEMENT_3D('',#1206,#986,#987);
#838=AXIS2_PLACEMENT_3D('',#1208,#988,#989);
#839=AXIS2_PLACEMENT_3D('',#1211,#991,#992);
#840=AXIS2_PLACEMENT_3D('',#1212,#993,#994);
#841=AXIS2_PLACEMENT_3D('',#1214,#995,#996);
#842=AXIS2_PLACEMENT_3D('',#1217,#998,#999);
#843=AXIS2_PLACEMENT_3D('',#1218,#1000,#1001);
#844=AXIS2_PLACEMENT_3D('',#1220,#1002,#1003);
#845=AXIS2_PLACEMENT_3D('',#1223,#1005,#1006);
#846=AXIS2_PLACEMENT_3D('',#1224,#1007,#1008);
#847=AXIS2_PLACEMENT_3D('',#1226,#1009,#1010);
#848=AXIS2_PLACEMENT_3D('',#1229,#1012,#1013);
#849=AXIS2_PLACEMENT_3D('',#1230,#1014,#1015);
#850=AXIS2_PLACEMENT_3D('',#1232,#1016,#1017);
#851=AXIS2_PLACEMENT_3D('',#1235,#1019,#1020);
#852=AXIS2_PLACEMENT_3D('',#1236,#1021,#1022);
#853=AXIS2_PLACEMENT_3D('',#1238,#1023,#1024);
#854=AXIS2_PLACEMENT_3D('',#1241,#1026,#1027);
#855=AXIS2_PLACEMENT_3D('',#1242,#1028,#1029);
#856=AXIS2_PLACEMENT_3D('',#1251,#1034,#1035);
#857=AXIS2_PLACEMENT_3D('',#1253,#1036,#1037);
#858=AXIS2_PLACEMENT_3D('',#1255,#1038,#1039);
#859=AXIS2_PLACEMENT_3D('',#1257,#1041,#1042);
#860=AXIS2_PLACEMENT_3D('',#1263,#1046,#1047);
#861=AXIS2_PLACEMENT_3D('',#1269,#1051,#1052);
#862=AXIS2_PLACEMENT_3D('',#1271,#1053,#1054);
#863=AXIS2_PLACEMENT_3D('',#1273,#1055,#1056);
#864=AXIS2_PLACEMENT_3D('',#1275,#1058,#1059);
#865=AXIS2_PLACEMENT_3D('',#1281,#1063,#1064);
#866=AXIS2_PLACEMENT_3D('',#1287,#1068,#1069);
#867=AXIS2_PLACEMENT_3D('',#1289,#1070,#1071);
#868=AXIS2_PLACEMENT_3D('',#1291,#1072,#1073);
#869=AXIS2_PLACEMENT_3D('',#1293,#1075,#1076);
#870=AXIS2_PLACEMENT_3D('',#1299,#1080,#1081);
#871=AXIS2_PLACEMENT_3D('',#1305,#1085,#1086);
#872=AXIS2_PLACEMENT_3D('',#1307,#1087,#1088);
#873=AXIS2_PLACEMENT_3D('',#1309,#1089,#1090);
#874=AXIS2_PLACEMENT_3D('',#1311,#1092,#1093);
#875=AXIS2_PLACEMENT_3D('',#1314,#1096,#1097);
#876=AXIS2_PLACEMENT_3D('',#1316,#1098,#1099);
#877=AXIS2_PLACEMENT_3D('',#1317,#1100,#1101);
#878=AXIS2_PLACEMENT_3D('',#1319,#1102,#1103);
#879=AXIS2_PLACEMENT_3D('',#1320,#1104,#1105);
#880=AXIS2_PLACEMENT_3D('',#1323,#1107,#1108);
#881=AXIS2_PLACEMENT_3D('',#1324,#1109,#1110);
#882=AXIS2_PLACEMENT_3D('',#1326,#1111,#1112);
#883=AXIS2_PLACEMENT_3D('',#1328,#1114,#1115);
#884=AXIS2_PLACEMENT_3D('',#1330,#1116,#1117);
#885=AXIS2_PLACEMENT_3D('',#1332,#1119,#1120);
#886=AXIS2_PLACEMENT_3D('',#1333,#1121,#1122);
#887=DIRECTION('axis',(0.,0.,1.));
#888=DIRECTION('refdir',(1.,0.,0.));
#889=DIRECTION('center_axis',(0.,-1.,0.));
#890=DIRECTION('ref_axis',(1.,0.,0.));
#891=DIRECTION('center_axis',(0.,1.,0.));
#892=DIRECTION('ref_axis',(1.,0.,0.));
#893=DIRECTION('',(0.,1.,0.));
#894=DIRECTION('center_axis',(0.,1.,0.));
#895=DIRECTION('ref_axis',(1.,0.,0.));
#896=DIRECTION('center_axis',(0.,-1.,0.));
#897=DIRECTION('ref_axis',(1.,0.,0.));
#898=DIRECTION('center_axis',(0.,1.,0.));
#899=DIRECTION('ref_axis',(1.,0.,0.));
#900=DIRECTION('center_axis',(0.,-1.,0.));
#901=DIRECTION('ref_axis',(1.,0.,0.));
#902=DIRECTION('center_axis',(0.,-1.,0.));
#903=DIRECTION('ref_axis',(1.,0.,0.));
#904=DIRECTION('center_axis',(0.,-1.,0.));
#905=DIRECTION('ref_axis',(1.,0.,0.));
#906=DIRECTION('',(0.,1.,0.));
#907=DIRECTION('center_axis',(0.,1.,0.));
#908=DIRECTION('ref_axis',(1.,0.,0.));
#909=DIRECTION('center_axis',(0.,-1.,0.));
#910=DIRECTION('ref_axis',(1.,0.,0.));
#911=DIRECTION('center_axis',(0.,1.,0.));
#912=DIRECTION('ref_axis',(1.,0.,0.));
#913=DIRECTION('',(0.,1.,0.));
#914=DIRECTION('center_axis',(0.,1.,0.));
#915=DIRECTION('ref_axis',(1.,0.,0.));
#916=DIRECTION('center_axis',(0.,-1.,0.));
#917=DIRECTION('ref_axis',(1.,0.,0.));
#918=DIRECTION('center_axis',(0.,1.,0.));
#919=DIRECTION('ref_axis',(1.,0.,0.));
#920=DIRECTION('',(0.,1.,0.));
#921=DIRECTION('center_axis',(0.,1.,0.));
#922=DIRECTION('ref_axis',(1.,0.,0.));
#923=DIRECTION('center_axis',(0.,-1.,0.));
#924=DIRECTION('ref_axis',(1.,0.,0.));
#925=DIRECTION('center_axis',(0.,1.,0.));
#926=DIRECTION('ref_axis',(1.,0.,0.));
#927=DIRECTION('',(0.,1.,0.));
#928=DIRECTION('center_axis',(0.,1.,0.));
#929=DIRECTION('ref_axis',(1.,0.,0.));
#930=DIRECTION('center_axis',(0.,-1.,0.));
#931=DIRECTION('ref_axis',(1.,0.,0.));
#932=DIRECTION('center_axis',(0.,1.,0.));
#933=DIRECTION('ref_axis',(1.,0.,0.));
#934=DIRECTION('',(0.,1.,0.));
#935=DIRECTION('center_axis',(0.,1.,0.));
#936=DIRECTION('ref_axis',(1.,0.,0.));
#937=DIRECTION('center_axis',(0.,-1.,0.));
#938=DIRECTION('ref_axis',(1.,0.,0.));
#939=DIRECTION('center_axis',(0.,1.,0.));
#940=DIRECTION('ref_axis',(1.,0.,0.));
#941=DIRECTION('',(0.,1.,0.));
#942=DIRECTION('center_axis',(0.,1.,0.));
#943=DIRECTION('ref_axis',(1.,0.,0.));
#944=DIRECTION('center_axis',(0.,-1.,0.));
#945=DIRECTION('ref_axis',(1.,0.,0.));
#946=DIRECTION('center_axis',(0.,1.,0.));
#947=DIRECTION('ref_axis',(1.,0.,0.));
#948=DIRECTION('',(0.,1.,0.));
#949=DIRECTION('center_axis',(0.,1.,0.));
#950=DIRECTION('ref_axis',(1.,0.,0.));
#951=DIRECTION('center_axis',(0.,-1.,0.));
#952=DIRECTION('ref_axis',(1.,0.,0.));
#953=DIRECTION('center_axis',(0.,1.,0.));
#954=DIRECTION('ref_axis',(1.,0.,0.));
#955=DIRECTION('',(0.,1.,0.));
#956=DIRECTION('center_axis',(0.,1.,0.));
#957=DIRECTION('ref_axis',(1.,0.,0.));
#958=DIRECTION('center_axis',(0.,-1.,0.));
#959=DIRECTION('ref_axis',(1.,0.,0.));
#960=DIRECTION('center_axis',(0.,1.,0.));
#961=DIRECTION('ref_axis',(1.,0.,0.));
#962=DIRECTION('',(0.,1.,0.));
#963=DIRECTION('center_axis',(0.,1.,0.));
#964=DIRECTION('ref_axis',(1.,0.,0.));
#965=DIRECTION('center_axis',(0.,-1.,0.));
#966=DIRECTION('ref_axis',(1.,0.,0.));
#967=DIRECTION('center_axis',(0.,1.,0.));
#968=DIRECTION('ref_axis',(1.,0.,0.));
#969=DIRECTION('',(0.,1.,0.));
#970=DIRECTION('center_axis',(0.,1.,0.));
#971=DIRECTION('ref_axis',(1.,0.,0.));
#972=DIRECTION('center_axis',(0.,-1.,0.));
#973=DIRECTION('ref_axis',(1.,0.,0.));
#974=DIRECTION('center_axis',(0.,1.,0.));
#975=DIRECTION('ref_axis',(1.,0.,0.));
#976=DIRECTION('',(0.,1.,0.));
#977=DIRECTION('center_axis',(0.,1.,0.));
#978=DIRECTION('ref_axis',(1.,0.,0.));
#979=DIRECTION('center_axis',(0.,-1.,0.));
#980=DIRECTION('ref_axis',(1.,0.,0.));
#981=DIRECTION('center_axis',(0.,1.,0.));
#982=DIRECTION('ref_axis',(1.,0.,0.));
#983=DIRECTION('',(0.,1.,0.));
#984=DIRECTION('center_axis',(0.,1.,0.));
#985=DIRECTION('ref_axis',(1.,0.,0.));
#986=DIRECTION('center_axis',(0.,-1.,0.));
#987=DIRECTION('ref_axis',(1.,0.,0.));
#988=DIRECTION('center_axis',(0.,1.,0.));
#989=DIRECTION('ref_axis',(1.,0.,0.));
#990=DIRECTION('',(0.,1.,0.));
#991=DIRECTION('center_axis',(0.,1.,0.));
#992=DIRECTION('ref_axis',(1.,0.,0.));
#993=DIRECTION('center_axis',(0.,-1.,0.));
#994=DIRECTION('ref_axis',(1.,0.,0.));
#995=DIRECTION('center_axis',(0.,1.,0.));
#996=DIRECTION('ref_axis',(1.,0.,0.));
#997=DIRECTION('',(0.,1.,0.));
#998=DIRECTION('center_axis',(0.,1.,0.));
#999=DIRECTION('ref_axis',(1.,0.,0.));
#1000=DIRECTION('center_axis',(0.,-1.,0.));
#1001=DIRECTION('ref_axis',(1.,0.,0.));
#1002=DIRECTION('center_axis',(0.,1.,0.));
#1003=DIRECTION('ref_axis',(1.,0.,0.));
#1004=DIRECTION('',(0.,1.,0.));
#1005=DIRECTION('center_axis',(0.,1.,0.));
#1006=DIRECTION('ref_axis',(1.,0.,0.));
#1007=DIRECTION('center_axis',(0.,-1.,0.));
#1008=DIRECTION('ref_axis',(1.,0.,0.));
#1009=DIRECTION('center_axis',(0.,1.,0.));
#1010=DIRECTION('ref_axis',(1.,0.,0.));
#1011=DIRECTION('',(0.,1.,0.));
#1012=DIRECTION('center_axis',(0.,1.,0.));
#1013=DIRECTION('ref_axis',(1.,0.,0.));
#1014=DIRECTION('center_axis',(0.,-1.,0.));
#1015=DIRECTION('ref_axis',(1.,0.,0.));
#1016=DIRECTION('center_axis',(0.,1.,0.));
#1017=DIRECTION('ref_axis',(1.,0.,0.));
#1018=DIRECTION('',(0.,1.,0.));
#1019=DIRECTION('center_axis',(0.,1.,0.));
#1020=DIRECTION('ref_axis',(1.,0.,0.));
#1021=DIRECTION('center_axis',(0.,-1.,0.));
#1022=DIRECTION('ref_axis',(1.,0.,0.));
#1023=DIRECTION('center_axis',(0.,1.,0.));
#1024=DIRECTION('ref_axis',(1.,0.,0.));
#1025=DIRECTION('',(0.,1.,0.));
#1026=DIRECTION('center_axis',(0.,1.,0.));
#1027=DIRECTION('ref_axis',(1.,0.,0.));
#1028=DIRECTION('center_axis',(-0.097980576984103,0.,-0.995188327169216));
#1029=DIRECTION('ref_axis',(0.995188327169216,0.,-0.097980576984103));
#1030=DIRECTION('',(-0.995188327169216,0.,0.097980576984103));
#1031=DIRECTION('',(0.,-1.,0.));
#1032=DIRECTION('',(0.995188327169216,0.,-0.097980576984103));
#1033=DIRECTION('',(0.,-1.,0.));
#1034=DIRECTION('center_axis',(0.,-1.,0.));
#1035=DIRECTION('ref_axis',(-0.0979805805732178,0.,0.995188326815852));
#1036=DIRECTION('center_axis',(0.,-1.,0.));
#1037=DIRECTION('ref_axis',(-0.0979805805732178,0.,0.995188326815852));
#1038=DIRECTION('center_axis',(0.,-1.,0.));
#1039=DIRECTION('ref_axis',(-0.0979805805732178,0.,0.995188326815852));
#1040=DIRECTION('',(0.,-1.,0.));
#1041=DIRECTION('center_axis',(-0.0979805805732182,0.,0.995188326815852));
#1042=DIRECTION('ref_axis',(-0.995188326815852,0.,-0.0979805805732182));
#1043=DIRECTION('',(-0.995188326815852,0.,-0.0979805805732182));
#1044=DIRECTION('',(-0.995188326815852,0.,-0.0979805805732182));
#1045=DIRECTION('',(0.,-1.,0.));
#1046=DIRECTION('center_axis',(-1.,0.,-8.1163991418079E-17));
#1047=DIRECTION('ref_axis',(8.1163991418079E-17,0.,-1.));
#1048=DIRECTION('',(8.1163991418079E-17,0.,-1.));
#1049=DIRECTION('',(8.1163991418079E-17,0.,-1.));
#1050=DIRECTION('',(0.,-1.,0.));
#1051=DIRECTION('center_axis',(0.,-1.,0.));
#1052=DIRECTION('ref_axis',(1.,0.,0.));
#1053=DIRECTION('center_axis',(0.,-1.,0.));
#1054=DIRECTION('ref_axis',(1.,0.,0.));
#1055=DIRECTION('center_axis',(0.,-1.,0.));
#1056=DIRECTION('ref_axis',(1.,0.,0.));
#1057=DIRECTION('',(0.,-1.,0.));
#1058=DIRECTION('center_axis',(1.,0.,0.));
#1059=DIRECTION('ref_axis',(0.,0.,1.));
#1060=DIRECTION('',(0.,0.,-1.));
#1061=DIRECTION('',(0.,0.,1.));
#1062=DIRECTION('',(0.,-1.,0.));
#1063=DIRECTION('center_axis',(0.0975609756097562,0.,0.995229549419667));
#1064=DIRECTION('ref_axis',(-0.995229549419667,0.,0.0975609756097562));
#1065=DIRECTION('',(-0.995229549419667,0.,0.0975609756097562));
#1066=DIRECTION('',(-0.995229549419667,0.,0.0975609756097562));
#1067=DIRECTION('',(0.,-1.,0.));
#1068=DIRECTION('center_axis',(0.,-1.,0.));
#1069=DIRECTION('ref_axis',(0.0975609756097438,0.,-0.995229549419668));
#1070=DIRECTION('center_axis',(0.,-1.,0.));
#1071=DIRECTION('ref_axis',(0.0975609756097438,0.,-0.995229549419668));
#1072=DIRECTION('center_axis',(0.,-1.,0.));
#1073=DIRECTION('ref_axis',(0.0975609756097438,0.,-0.995229549419668));
#1074=DIRECTION('',(0.,-1.,0.));
#1075=DIRECTION('center_axis',(0.0975609756097661,0.,-0.995229549419666));
#1076=DIRECTION('ref_axis',(0.995229549419666,0.,0.0975609756097661));
#1077=DIRECTION('',(0.995229549419666,0.,0.0975609756097661));
#1078=DIRECTION('',(0.995229549419666,0.,0.0975609756097661));
#1079=DIRECTION('',(0.,-1.,0.));
#1080=DIRECTION('center_axis',(1.,0.,0.));
#1081=DIRECTION('ref_axis',(0.,0.,1.));
#1082=DIRECTION('',(0.,0.,1.));
#1083=DIRECTION('',(0.,0.,1.));
#1084=DIRECTION('',(0.,-1.,0.));
#1085=DIRECTION('center_axis',(0.,-1.,0.));
#1086=DIRECTION('ref_axis',(-1.,0.,0.));
#1087=DIRECTION('center_axis',(0.,-1.,0.));
#1088=DIRECTION('ref_axis',(-1.,0.,0.));
#1089=DIRECTION('center_axis',(0.,-1.,0.));
#1090=DIRECTION('ref_axis',(-1.,0.,0.));
#1091=DIRECTION('',(0.,-1.,0.));
#1092=DIRECTION('center_axis',(-1.,0.,8.11639903743582E-17));
#1093=DIRECTION('ref_axis',(-8.11639903743582E-17,0.,-1.));
#1094=DIRECTION('',(8.11639903743582E-17,0.,1.));
#1095=DIRECTION('',(-8.11639903743582E-17,0.,-1.));
#1096=DIRECTION('center_axis',(0.,-1.,0.));
#1097=DIRECTION('ref_axis',(1.,0.,0.));
#1098=DIRECTION('center_axis',(0.,-1.,0.));
#1099=DIRECTION('ref_axis',(1.,0.,0.));
#1100=DIRECTION('center_axis',(0.,-1.,0.));
#1101=DIRECTION('ref_axis',(1.,0.,0.));
#1102=DIRECTION('center_axis',(0.,1.,0.));
#1103=DIRECTION('ref_axis',(1.,0.,0.));
#1104=DIRECTION('center_axis',(0.,-1.,0.));
#1105=DIRECTION('ref_axis',(1.,0.,0.));
#1106=DIRECTION('',(0.,1.,0.));
#1107=DIRECTION('center_axis',(0.,-1.,0.));
#1108=DIRECTION('ref_axis',(1.,0.,0.));
#1109=DIRECTION('center_axis',(0.,-1.,0.));
#1110=DIRECTION('ref_axis',(1.,0.,0.));
#1111=DIRECTION('center_axis',(0.,1.,0.));
#1112=DIRECTION('ref_axis',(1.,0.,0.));
#1113=DIRECTION('',(0.,1.,0.));
#1114=DIRECTION('center_axis',(0.,-1.,0.));
#1115=DIRECTION('ref_axis',(1.,0.,0.));
#1116=DIRECTION('center_axis',(0.,-1.,0.));
#1117=DIRECTION('ref_axis',(1.,0.,0.));
#1118=DIRECTION('',(0.,1.,0.));
#1119=DIRECTION('center_axis',(0.,-1.,0.));
#1120=DIRECTION('ref_axis',(1.,0.,0.));
#1121=DIRECTION('center_axis',(0.,-1.,0.));
#1122=DIRECTION('ref_axis',(1.,0.,0.));
#1123=CARTESIAN_POINT('',(0.,0.,0.));
#1124=CARTESIAN_POINT('Origin',(0.,-0.7,0.));
#1125=CARTESIAN_POINT('',(-1.3,-1.9,-1.59204083889156E-16));
#1126=CARTESIAN_POINT('Origin',(0.,-1.9,0.));
#1127=CARTESIAN_POINT('',(-1.3,-0.7,-1.59204083889156E-16));
#1128=CARTESIAN_POINT('',(-1.3,-0.7,-1.59204083889156E-16));
#1129=CARTESIAN_POINT('Origin',(0.,-0.7,0.));
#1130=CARTESIAN_POINT('Origin',(0.,-1.9,0.));
#1131=CARTESIAN_POINT('',(-2.4,-1.9,-2.93915231795365E-16));
#1132=CARTESIAN_POINT('Origin',(0.,-1.9,0.));
#1133=CARTESIAN_POINT('Origin',(0.,-0.7,0.));
#1134=CARTESIAN_POINT('',(-2.4,-0.7,-2.93915231795365E-16));
#1135=CARTESIAN_POINT('Origin',(0.,-0.7,0.));
#1136=CARTESIAN_POINT('Origin',(0.,-2.77436787862763E-32,0.));
#1137=CARTESIAN_POINT('',(-2.4,-2.77436787862763E-32,-2.93915231795365E-16));
#1138=CARTESIAN_POINT('',(-2.4,-2.77436787862763E-32,-2.93915231795365E-16));
#1139=CARTESIAN_POINT('Origin',(0.,-2.77436787862763E-32,0.));
#1140=CARTESIAN_POINT('Origin',(5.1,-0.2,0.));
#1141=CARTESIAN_POINT('',(4.6,-2.3,0.));
#1142=CARTESIAN_POINT('Origin',(5.1,-2.3,0.));
#1143=CARTESIAN_POINT('',(4.6,-0.2,-6.12323399573676E-17));
#1144=CARTESIAN_POINT('',(4.6,-0.2,-6.12323399573676E-17));
#1145=CARTESIAN_POINT('Origin',(5.1,-0.2,0.));
#1146=CARTESIAN_POINT('Origin',(-8.24,-0.2,0.));
#1147=CARTESIAN_POINT('',(-8.74,-2.3,0.));
#1148=CARTESIAN_POINT('Origin',(-8.24,-2.3,0.));
#1149=CARTESIAN_POINT('',(-8.74,-0.2,-6.12323399573677E-17));
#1150=CARTESIAN_POINT('',(-8.74,-0.2,-6.12323399573677E-17));
#1151=CARTESIAN_POINT('Origin',(-8.24,-0.2,0.));
#1152=CARTESIAN_POINT('Origin',(16.7,-0.2,0.));
#1153=CARTESIAN_POINT('',(16.2,-2.3,0.));
#1154=CARTESIAN_POINT('Origin',(16.7,-2.3,0.));
#1155=CARTESIAN_POINT('',(16.2,-0.2,-6.12323399573677E-17));
#1156=CARTESIAN_POINT('',(16.2,-0.2,-6.12323399573677E-17));
#1157=CARTESIAN_POINT('Origin',(16.7,-0.2,0.));
#1158=CARTESIAN_POINT('Origin',(7.03333333333333,-0.2,0.));
#1159=CARTESIAN_POINT('',(6.53333333333333,-2.3,0.));
#1160=CARTESIAN_POINT('Origin',(7.03333333333333,-2.3,0.));
#1161=CARTESIAN_POINT('',(6.53333333333333,-0.2,-6.12323399573676E-17));
#1162=CARTESIAN_POINT('',(6.53333333333333,-0.2,-6.12323399573676E-17));
#1163=CARTESIAN_POINT('Origin',(7.03333333333333,-0.2,0.));
#1164=CARTESIAN_POINT('Origin',(12.8333333333333,-0.2,0.));
#1165=CARTESIAN_POINT('',(12.3333333333333,-2.3,0.));
#1166=CARTESIAN_POINT('Origin',(12.8333333333333,-2.3,0.));
#1167=CARTESIAN_POINT('',(12.3333333333333,-0.2,-6.12323399573677E-17));
#1168=CARTESIAN_POINT('',(12.3333333333333,-0.2,-6.12323399573677E-17));
#1169=CARTESIAN_POINT('Origin',(12.8333333333333,-0.2,0.));
#1170=CARTESIAN_POINT('Origin',(-6.32,-0.2,0.));
#1171=CARTESIAN_POINT('',(-6.82,-2.3,0.));
#1172=CARTESIAN_POINT('Origin',(-6.32,-2.3,0.));
#1173=CARTESIAN_POINT('',(-6.82,-0.2,-6.12323399573677E-17));
#1174=CARTESIAN_POINT('',(-6.82,-0.2,-6.12323399573677E-17));
#1175=CARTESIAN_POINT('Origin',(-6.32,-0.2,0.));
#1176=CARTESIAN_POINT('Origin',(-10.16,-0.2,0.));
#1177=CARTESIAN_POINT('',(-10.66,-2.3,0.));
#1178=CARTESIAN_POINT('Origin',(-10.16,-2.3,0.));
#1179=CARTESIAN_POINT('',(-10.66,-0.2,-6.12323399573677E-17));
#1180=CARTESIAN_POINT('',(-10.66,-0.2,-6.12323399573677E-17));
#1181=CARTESIAN_POINT('Origin',(-10.16,-0.2,0.));
#1182=CARTESIAN_POINT('Origin',(10.9,-0.2,0.));
#1183=CARTESIAN_POINT('',(10.4,-2.3,0.));
#1184=CARTESIAN_POINT('Origin',(10.9,-2.3,0.));
#1185=CARTESIAN_POINT('',(10.4,-0.2,-6.12323399573677E-17));
#1186=CARTESIAN_POINT('',(10.4,-0.2,-6.12323399573677E-17));
#1187=CARTESIAN_POINT('Origin',(10.9,-0.2,0.));
#1188=CARTESIAN_POINT('Origin',(-14.,-0.2,0.));
#1189=CARTESIAN_POINT('',(-14.5,-2.3,0.));
#1190=CARTESIAN_POINT('Origin',(-14.,-2.3,0.));
#1191=CARTESIAN_POINT('',(-14.5,-0.2,-6.12323399573677E-17));
#1192=CARTESIAN_POINT('',(-14.5,-0.2,-6.12323399573677E-17));
#1193=CARTESIAN_POINT('Origin',(-14.,-0.2,0.));
#1194=CARTESIAN_POINT('Origin',(-4.4,-0.2,0.));
#1195=CARTESIAN_POINT('',(-4.9,-2.3,0.));
#1196=CARTESIAN_POINT('Origin',(-4.4,-2.3,0.));
#1197=CARTESIAN_POINT('',(-4.9,-0.2,-6.12323399573677E-17));
#1198=CARTESIAN_POINT('',(-4.9,-0.2,-6.12323399573677E-17));
#1199=CARTESIAN_POINT('Origin',(-4.4,-0.2,0.));
#1200=CARTESIAN_POINT('Origin',(8.96666666666667,-0.2,0.));
#1201=CARTESIAN_POINT('',(8.46666666666667,-2.3,0.));
#1202=CARTESIAN_POINT('Origin',(8.96666666666667,-2.3,0.));
#1203=CARTESIAN_POINT('',(8.46666666666667,-0.2,-6.12323399573676E-17));
#1204=CARTESIAN_POINT('',(8.46666666666667,-0.2,-6.12323399573676E-17));
#1205=CARTESIAN_POINT('Origin',(8.96666666666667,-0.2,0.));
#1206=CARTESIAN_POINT('Origin',(14.7666666666667,-0.2,0.));
#1207=CARTESIAN_POINT('',(14.2666666666667,-2.3,0.));
#1208=CARTESIAN_POINT('Origin',(14.7666666666667,-2.3,0.));
#1209=CARTESIAN_POINT('',(14.2666666666667,-0.2,-6.12323399573677E-17));
#1210=CARTESIAN_POINT('',(14.2666666666667,-0.2,-6.12323399573677E-17));
#1211=CARTESIAN_POINT('Origin',(14.7666666666667,-0.2,0.));
#1212=CARTESIAN_POINT('Origin',(-12.08,-0.2,0.));
#1213=CARTESIAN_POINT('',(-12.58,-2.3,0.));
#1214=CARTESIAN_POINT('Origin',(-12.08,-2.3,0.));
#1215=CARTESIAN_POINT('',(-12.58,-0.2,-6.12323399573677E-17));
#1216=CARTESIAN_POINT('',(-12.58,-0.2,-6.12323399573677E-17));
#1217=CARTESIAN_POINT('Origin',(-12.08,-0.2,0.));
#1218=CARTESIAN_POINT('Origin',(0.,-0.2,4.48));
#1219=CARTESIAN_POINT('',(-0.5,-2.3,4.48));
#1220=CARTESIAN_POINT('Origin',(0.,-2.3,4.48));
#1221=CARTESIAN_POINT('',(-0.5,-0.2,4.48));
#1222=CARTESIAN_POINT('',(-0.5,-0.2,4.48));
#1223=CARTESIAN_POINT('Origin',(0.,-0.2,4.48));
#1224=CARTESIAN_POINT('Origin',(0.,-0.2,6.4));
#1225=CARTESIAN_POINT('',(-0.5,-2.3,6.4));
#1226=CARTESIAN_POINT('Origin',(0.,-2.3,6.4));
#1227=CARTESIAN_POINT('',(-0.5,-0.2,6.4));
#1228=CARTESIAN_POINT('',(-0.5,-0.2,6.4));
#1229=CARTESIAN_POINT('Origin',(0.,-0.2,6.4));
#1230=CARTESIAN_POINT('Origin',(0.,-0.2,-4.48));
#1231=CARTESIAN_POINT('',(-0.5,-2.3,-4.48));
#1232=CARTESIAN_POINT('Origin',(0.,-2.3,-4.48));
#1233=CARTESIAN_POINT('',(-0.5,-0.2,-4.48));
#1234=CARTESIAN_POINT('',(-0.5,-0.2,-4.48));
#1235=CARTESIAN_POINT('Origin',(0.,-0.2,-4.48));
#1236=CARTESIAN_POINT('Origin',(0.,-0.2,-6.4));
#1237=CARTESIAN_POINT('',(-0.5,-2.3,-6.4));
#1238=CARTESIAN_POINT('Origin',(0.,-2.3,-6.4));
#1239=CARTESIAN_POINT('',(-0.5,-0.2,-6.4));
#1240=CARTESIAN_POINT('',(-0.5,-0.2,-6.4));
#1241=CARTESIAN_POINT('Origin',(0.,-0.2,-6.4));
#1242=CARTESIAN_POINT('Origin',(-13.8763650385714,-0.2,-1.79133898890459));
#1243=CARTESIAN_POINT('',(-1.8,-0.2,-2.98030913862046));
#1244=CARTESIAN_POINT('',(-13.8763650385714,-0.2,-1.79133898890459));
#1245=CARTESIAN_POINT('',(-1.6,-0.2,-3.));
#1246=CARTESIAN_POINT('',(-1.8,-2.3,-2.98030913862046));
#1247=CARTESIAN_POINT('',(-1.8,-0.2,-2.98030913862046));
#1248=CARTESIAN_POINT('',(-13.8763650385714,-2.3,-1.79133898890459));
#1249=CARTESIAN_POINT('',(-1.6,-2.3,-3.));
#1250=CARTESIAN_POINT('',(-13.8763650385714,-0.2,-1.79133898890459));
#1251=CARTESIAN_POINT('Origin',(-13.7,-0.2,0.));
#1252=CARTESIAN_POINT('',(-13.8763650450318,-0.2,1.79133898826853));
#1253=CARTESIAN_POINT('Origin',(-13.7,-0.2,0.));
#1254=CARTESIAN_POINT('',(-13.8763650450318,-2.3,1.79133898826853));
#1255=CARTESIAN_POINT('Origin',(-13.7,-2.3,0.));
#1256=CARTESIAN_POINT('',(-13.8763650450318,-0.2,1.79133898826853));
#1257=CARTESIAN_POINT('Origin',(-1.8,-0.2,2.98030918259566));
#1258=CARTESIAN_POINT('',(-1.8,-0.2,2.98030918259566));
#1259=CARTESIAN_POINT('',(-1.6,-0.2,3.00000004470348));
#1260=CARTESIAN_POINT('',(-1.8,-2.3,2.98030918259566));
#1261=CARTESIAN_POINT('',(-1.6,-2.3,3.00000004470348));
#1262=CARTESIAN_POINT('',(-1.8,-0.2,2.98030918259566));
#1263=CARTESIAN_POINT('Origin',(-1.8,-0.2,6.4));
#1264=CARTESIAN_POINT('',(-1.8,-0.2,6.4));
#1265=CARTESIAN_POINT('',(-1.8,-0.2,6.4));
#1266=CARTESIAN_POINT('',(-1.8,-2.3,6.4));
#1267=CARTESIAN_POINT('',(-1.8,-2.3,6.4));
#1268=CARTESIAN_POINT('',(-1.8,-0.2,6.4));
#1269=CARTESIAN_POINT('Origin',(0.,-0.2,6.4));
#1270=CARTESIAN_POINT('',(1.8,-0.2,6.4));
#1271=CARTESIAN_POINT('Origin',(0.,-0.2,6.4));
#1272=CARTESIAN_POINT('',(1.8,-2.3,6.4));
#1273=CARTESIAN_POINT('Origin',(0.,-2.3,6.4));
#1274=CARTESIAN_POINT('',(1.8,-0.2,6.4));
#1275=CARTESIAN_POINT('Origin',(1.8,-0.2,3.23984576802705));
#1276=CARTESIAN_POINT('',(1.8,-0.2,3.23984576802705));
#1277=CARTESIAN_POINT('',(1.8,-0.2,6.4));
#1278=CARTESIAN_POINT('',(1.8,-2.3,3.23984576802705));
#1279=CARTESIAN_POINT('',(1.8,-2.3,6.4));
#1280=CARTESIAN_POINT('',(1.8,-0.2,3.23984576802705));
#1281=CARTESIAN_POINT('Origin',(16.5756097560976,-0.2,1.7914131889554));
#1282=CARTESIAN_POINT('',(16.5756097560976,-0.2,1.79141318895558));
#1283=CARTESIAN_POINT('',(16.5756097560976,-0.2,1.7914131889554));
#1284=CARTESIAN_POINT('',(16.5756097560976,-2.3,1.79141318895558));
#1285=CARTESIAN_POINT('',(16.5756097560976,-2.3,1.7914131889554));
#1286=CARTESIAN_POINT('',(16.5756097560976,-0.2,1.79141318895558));
#1287=CARTESIAN_POINT('Origin',(16.4,-0.2,0.));
#1288=CARTESIAN_POINT('',(16.5756097560976,-0.2,-1.79141318895558));
#1289=CARTESIAN_POINT('Origin',(16.4,-0.2,0.));
#1290=CARTESIAN_POINT('',(16.5756097560976,-2.3,-1.79141318895558));
#1291=CARTESIAN_POINT('Origin',(16.4,-2.3,0.));
#1292=CARTESIAN_POINT('',(16.5756097560976,-0.2,-1.79141318895558));
#1293=CARTESIAN_POINT('Origin',(1.8,-0.2,-3.23984576802705));
#1294=CARTESIAN_POINT('',(1.8,-0.2,-3.23984576802705));
#1295=CARTESIAN_POINT('',(0.331707317073171,-0.2,-3.38378046802721));
#1296=CARTESIAN_POINT('',(1.8,-2.3,-3.23984576802705));
#1297=CARTESIAN_POINT('',(0.331707317073171,-2.3,-3.38378046802721));
#1298=CARTESIAN_POINT('',(1.8,-0.2,-3.23984576802705));
#1299=CARTESIAN_POINT('Origin',(1.8,-0.2,-6.4));
#1300=CARTESIAN_POINT('',(1.8,-0.2,-6.4));
#1301=CARTESIAN_POINT('',(1.8,-0.2,-6.4));
#1302=CARTESIAN_POINT('',(1.8,-2.3,-6.4));
#1303=CARTESIAN_POINT('',(1.8,-2.3,-6.4));
#1304=CARTESIAN_POINT('',(1.8,-0.2,-6.4));
#1305=CARTESIAN_POINT('Origin',(0.,-0.2,-6.4));
#1306=CARTESIAN_POINT('',(-1.8,-0.2,-6.4));
#1307=CARTESIAN_POINT('Origin',(0.,-0.2,-6.4));
#1308=CARTESIAN_POINT('',(-1.8,-2.3,-6.4));
#1309=CARTESIAN_POINT('Origin',(0.,-2.3,-6.4));
#1310=CARTESIAN_POINT('',(-1.8,-0.2,-6.4));
#1311=CARTESIAN_POINT('Origin',(-1.8,-0.2,-2.98030913862046));
#1312=CARTESIAN_POINT('',(-1.8,-0.2,-6.4));
#1313=CARTESIAN_POINT('',(-1.8,-2.3,-6.4));
#1314=CARTESIAN_POINT('Origin',(1.35000000000009,-2.3,0.));
#1315=CARTESIAN_POINT('',(-3.4,-2.3,0.));
#1316=CARTESIAN_POINT('Origin',(0.,-2.3,0.));
#1317=CARTESIAN_POINT('Origin',(1.35000000000009,-0.2,0.));
#1318=CARTESIAN_POINT('',(-3.4,-0.2,-4.163799117101E-16));
#1319=CARTESIAN_POINT('Origin',(0.,-0.2,0.));
#1320=CARTESIAN_POINT('Origin',(0.,-2.77436787862763E-32,0.));
#1321=CARTESIAN_POINT('',(-3.4,-2.77436787862763E-32,-4.163799117101E-16));
#1322=CARTESIAN_POINT('',(-3.4,-2.77436787862763E-32,-4.163799117101E-16));
#1323=CARTESIAN_POINT('Origin',(0.,-2.77436787862763E-32,0.));
#1324=CARTESIAN_POINT('Origin',(0.,-2.77436787862763E-32,0.));
#1325=CARTESIAN_POINT('',(-2.4,-4.7,-2.93915231795365E-16));
#1326=CARTESIAN_POINT('Origin',(0.,-4.7,0.));
#1327=CARTESIAN_POINT('',(-2.4,-2.77436787862763E-32,-2.93915231795365E-16));
#1328=CARTESIAN_POINT('Origin',(0.,-2.77436787862763E-32,0.));
#1329=CARTESIAN_POINT('',(-3.4,-4.7,-4.163799117101E-16));
#1330=CARTESIAN_POINT('Origin',(0.,-4.7,0.));
#1331=CARTESIAN_POINT('',(-3.4,-2.77436787862763E-32,-4.163799117101E-16));
#1332=CARTESIAN_POINT('Origin',(0.,-4.7,0.));
#1333=CARTESIAN_POINT('Origin',(0.,-2.77436787862763E-32,0.));
#1334=UNCERTAINTY_MEASURE_WITH_UNIT(LENGTH_MEASURE(0.01),#1338,
'DISTANCE_ACCURACY_VALUE',
'Maximum model space distance between geometric entities at asserted c
onnectivities');
#1335=UNCERTAINTY_MEASURE_WITH_UNIT(LENGTH_MEASURE(0.01),#1338,
'DISTANCE_ACCURACY_VALUE',
'Maximum model space distance between geometric entities at asserted c
onnectivities');
#1336=(
GEOMETRIC_REPRESENTATION_CONTEXT(3)
GLOBAL_UNCERTAINTY_ASSIGNED_CONTEXT((#1334))
GLOBAL_UNIT_ASSIGNED_CONTEXT((#1338,#1340,#1341))
REPRESENTATION_CONTEXT('','3D')
);
#1337=(
GEOMETRIC_REPRESENTATION_CONTEXT(3)
GLOBAL_UNCERTAINTY_ASSIGNED_CONTEXT((#1335))
GLOBAL_UNIT_ASSIGNED_CONTEXT((#1338,#1340,#1341))
REPRESENTATION_CONTEXT('','3D')
);
#1338=(
LENGTH_UNIT()
NAMED_UNIT(*)
SI_UNIT(.MILLI.,.METRE.)
);
#1339=(
LENGTH_UNIT()
NAMED_UNIT(*)
SI_UNIT($,.METRE.)
);
#1340=(
NAMED_UNIT(*)
PLANE_ANGLE_UNIT()
SI_UNIT($,.RADIAN.)
);
#1341=(
NAMED_UNIT(*)
SI_UNIT($,.STERADIAN.)
SOLID_ANGLE_UNIT()
);
#1342=SHAPE_DEFINITION_REPRESENTATION(#1343,#1344);
#1343=PRODUCT_DEFINITION_SHAPE('',$,#1346);
#1344=SHAPE_REPRESENTATION('',(#794),#1336);
#1345=PRODUCT_DEFINITION_CONTEXT('part definition',#1350,'design');
#1346=PRODUCT_DEFINITION('Base (coxa) Joint','Base (coxa) Joint v9',#1347,
#1345);
#1347=PRODUCT_DEFINITION_FORMATION('',$,#1352);
#1348=PRODUCT_RELATED_PRODUCT_CATEGORY('Base (coxa) Joint v9',
'Base (coxa) Joint v9',(#1352));
#1349=APPLICATION_PROTOCOL_DEFINITION('international standard',
'automotive_design',2009,#1350);
#1350=APPLICATION_CONTEXT(
'Core Data for Automotive Mechanical Design Process');
#1351=PRODUCT_CONTEXT('part definition',#1350,'mechanical');
#1352=PRODUCT('Base (coxa) Joint','Base (coxa) Joint v9',$,(#1351));
#1353=PRESENTATION_STYLE_ASSIGNMENT((#1362));
#1354=PRESENTATION_STYLE_ASSIGNMENT((#1363));
#1355=PRESENTATION_STYLE_ASSIGNMENT((#1364));
#1356=PRESENTATION_STYLE_ASSIGNMENT((#1365));
#1357=PRESENTATION_STYLE_ASSIGNMENT((#1366));
#1358=PRESENTATION_STYLE_ASSIGNMENT((#1367));
#1359=PRESENTATION_STYLE_ASSIGNMENT((#1368));
#1360=PRESENTATION_STYLE_ASSIGNMENT((#1369));
#1361=PRESENTATION_STYLE_ASSIGNMENT((#1370));
#1362=SURFACE_STYLE_USAGE(.BOTH.,#1371);
#1363=SURFACE_STYLE_USAGE(.BOTH.,#1372);
#1364=SURFACE_STYLE_USAGE(.BOTH.,#1373);
#1365=SURFACE_STYLE_USAGE(.BOTH.,#1374);
#1366=SURFACE_STYLE_USAGE(.BOTH.,#1375);
#1367=SURFACE_STYLE_USAGE(.BOTH.,#1376);
#1368=SURFACE_STYLE_USAGE(.BOTH.,#1377);
#1369=SURFACE_STYLE_USAGE(.BOTH.,#1378);
#1370=SURFACE_STYLE_USAGE(.BOTH.,#1379);
#1371=SURFACE_SIDE_STYLE('',(#1380));
#1372=SURFACE_SIDE_STYLE('',(#1381));
#1373=SURFACE_SIDE_STYLE('',(#1382));
#1374=SURFACE_SIDE_STYLE('',(#1383));
#1375=SURFACE_SIDE_STYLE('',(#1384));
#1376=SURFACE_SIDE_STYLE('',(#1385));
#1377=SURFACE_SIDE_STYLE('',(#1386));
#1378=SURFACE_SIDE_STYLE('',(#1387));
#1379=SURFACE_SIDE_STYLE('',(#1388));
#1380=SURFACE_STYLE_FILL_AREA(#1389);
#1381=SURFACE_STYLE_FILL_AREA(#1390);
#1382=SURFACE_STYLE_FILL_AREA(#1391);
#1383=SURFACE_STYLE_FILL_AREA(#1392);
#1384=SURFACE_STYLE_FILL_AREA(#1393);
#1385=SURFACE_STYLE_FILL_AREA(#1394);
#1386=SURFACE_STYLE_FILL_AREA(#1395);
#1387=SURFACE_STYLE_FILL_AREA(#1396);
#1388=SURFACE_STYLE_FILL_AREA(#1397);
#1389=FILL_AREA_STYLE('Steel - Satin',(#1398));
#1390=FILL_AREA_STYLE('Opaque(26,26,26)',(#1399));
#1391=FILL_AREA_STYLE('Opaque(38,38,38)',(#1400));
#1392=FILL_AREA_STYLE('Opaque(151,81,0)',(#1401));
#1393=FILL_AREA_STYLE('Opaque(255,157,7)',(#1402));
#1394=FILL_AREA_STYLE('Opaque(189,41,31)',(#1403));
#1395=FILL_AREA_STYLE('Opaque(199,194,189)',(#1404));
#1396=FILL_AREA_STYLE('Opaque(255,0,255)',(#1405));
#1397=FILL_AREA_STYLE('Opaque(255,255,255)',(#1406));
#1398=FILL_AREA_STYLE_COLOUR('Steel - Satin',#1407);
#1399=FILL_AREA_STYLE_COLOUR('Opaque(26,26,26)',#1408);
#1400=FILL_AREA_STYLE_COLOUR('Opaque(38,38,38)',#1409);
#1401=FILL_AREA_STYLE_COLOUR('Opaque(151,81,0)',#1410);
#1402=FILL_AREA_STYLE_COLOUR('Opaque(255,157,7)',#1411);
#1403=FILL_AREA_STYLE_COLOUR('Opaque(189,41,31)',#1412);
#1404=FILL_AREA_STYLE_COLOUR('Opaque(199,194,189)',#1413);
#1405=FILL_AREA_STYLE_COLOUR('Opaque(255,0,255)',#1414);
#1406=FILL_AREA_STYLE_COLOUR('Opaque(255,255,255)',#1415);
#1407=COLOUR_RGB('Steel - Satin',0.627450980392157,0.627450980392157,0.627450980392157);
#1408=COLOUR_RGB('Opaque(26,26,26)',0.101960784313725,0.101960784313725,
0.101960784313725);
#1409=COLOUR_RGB('Opaque(38,38,38)',0.149019607843137,0.149019607843137,
0.149019607843137);
#1410=COLOUR_RGB('Opaque(151,81,0)',0.592156862745098,0.317647058823529,
0.);
#1411=COLOUR_RGB('Opaque(255,157,7)',1.,0.615686274509804,0.0274509803921569);
#1412=COLOUR_RGB('Opaque(189,41,31)',0.741176470588235,0.16078431372549,
0.12156862745098);
#1413=COLOUR_RGB('Opaque(199,194,189)',0.780392156862745,0.76078431372549,
0.741176470588235);
#1414=COLOUR_RGB('Opaque(255,0,255)',1.,0.,1.);
#1415=COLOUR_RGB('Opaque(255,255,255)',1.,1.,1.);
ENDSEC;
END-ISO-10303-21;
